<svg xmlns="http://www.w3.org/2000/svg" version="1.1" xmlns:xlink="http://www.w3.org/1999/xlink" xmlns:svgjs="http://svgjs.dev/svgjs" width="1000" height="623" viewBox="0 0 1000 623"><g transform="matrix(1,0,0,1,-0.6060606060606233,0.2522267206477409)"><svg viewBox="0 0 396 247" data-background-color="#ffffff" preserveAspectRatio="xMidYMid meet" height="623" width="1000" xmlns="http://www.w3.org/2000/svg" xmlns:xlink="http://www.w3.org/1999/xlink"><g id="tight-bounds" transform="matrix(1,0,0,1,0.2400000000000091,-0.09999999999999432)"><svg viewBox="0 0 395.52 247.2" height="247.2" width="395.52"><g><svg></svg></g><g><svg viewBox="0 0 395.52 247.2" height="247.2" width="395.52"><mask id="52ed5fc5-a3a4-4f08-9dd2-1501619b6b2b"><rect width="640" height="400" fill="white"></rect><g transform="matrix(1,0,0,1,39.55199999999999,92.88503297153389)"><svg viewBox="0 0 316.416 61.42993405693222" height="61.42993405693222" width="316.416"><g><svg viewBox="0 0 316.416 61.42993405693222" height="61.42993405693222" width="316.416"><g><svg viewBox="0 0 316.416 61.42993405693222" height="61.42993405693222" width="316.416"><g><svg viewBox="0 0 316.416 61.42993405693222" height="61.42993405693222" width="316.416"><g id="SvgjsG1399"><svg viewBox="0 0 316.416 61.42993405693222" height="61.42993405693222" width="316.416" id="SvgjsSvg1398"><g><svg viewBox="0 0 316.416 61.42993405693222" height="61.42993405693222" width="316.416"><g transform="matrix(1,0,0,1,0,0)"><svg width="316.416" viewBox="-4.300000011920929 -40.04999923706055 245.12001037597656 48.39999771118164" height="61.42993405693222" data-palette-color="#1c4b82"><path d="M1.8 4.35L1.8 4.35Q0.45 3.6 0.08 2.8-0.3 2-0.3 1.4L-0.3 1.4Q-0.3 0.05 0.7-2.27 1.7-4.6 3.38-7.58 5.05-10.55 7.15-13.8L7.15-13.8Q5.5-13.9 4.13-13.95 2.75-14 1-14L1-14-0.15-14Q0.5-15.7 1.98-16.38 3.45-17.05 5.45-17.05L5.45-17.05Q6.3-17.05 7.23-16.95 8.15-16.85 9.15-16.75L9.15-16.75Q11.65-20.4 14.15-23.75 16.65-27.1 18.88-29.75 21.1-32.4 22.75-34L22.75-34Q24.85-36.05 25.9-36.05L25.9-36.05Q26.55-36.05 27.35-35.55 28.15-35.05 29.05-34.25L29.05-34.25Q28.55-33.85 27.78-32.18 27-30.5 26.13-27.95 25.25-25.4 24.38-22.35 23.5-19.3 22.8-16.18 22.1-13.05 21.68-10.2 21.25-7.35 21.25-5.15L21.25-5.15Q21.25-3.2 21.65-2.2 22.05-1.2 23.05-1.2L23.05-1.2Q24.25-1.2 25.93-2.98 27.6-4.75 29.65-8.65L29.65-8.65 30.4-7.85Q28.9-3.75 26.48-1.15 24.05 1.45 21.35 1.45L21.35 1.45Q19.05 1.45 18.07-0.53 17.1-2.5 17.1-5.95L17.1-5.95Q17.1-7.25 17.28-8.85 17.45-10.45 17.8-12.55L17.8-12.55Q15.6-12.9 13.88-13.1 12.15-13.3 10.6-13.5L10.6-13.5Q8.2-9.25 5.95-4.67 3.7-0.1 1.8 4.35ZM18.25-14.75L18.25-14.75Q18.95-17.85 19.88-20.98 20.8-24.1 21.83-26.98 22.85-29.85 23.8-32.1L23.8-32.1Q22.3-30.95 20.38-28.65 18.45-26.35 16.35-23.15 14.25-19.95 12.1-16.2L12.1-16.2Q13.65-15.85 15.2-15.48 16.75-15.1 18.25-14.75ZM32.65 1.5L32.65 1.5Q30.35 1.5 29.42-0.05 28.5-1.6 28.5-3.75L28.5-3.75Q28.5-6.2 29.4-9.5 30.3-12.8 31.77-16.43 33.25-20.05 35.02-23.53 36.8-27 38.57-29.83 40.35-32.65 41.87-34.33 43.4-36 44.3-36L44.3-36Q44.9-36 45.32-35.35 45.75-34.7 46-33.77 46.25-32.85 46.25-32.1L46.25-32.1Q46.25-30.75 45.57-28.58 44.9-26.4 43.67-23.78 42.45-21.15 40.77-18.43 39.1-15.7 37.1-13.23 35.1-10.75 32.8-8.95L32.8-8.95Q32.6-7.7 32.42-6.45 32.25-5.2 32.25-4.15L32.25-4.15Q32.25-2.3 32.82-1.43 33.4-0.55 34.4-0.55L34.4-0.55Q35.7-0.55 37.02-1.75 38.35-2.95 39.55-4.78 40.75-6.6 41.65-8.55L41.65-8.55 42.7-7.95Q40.6-3.6 38.05-1.05 35.5 1.5 32.65 1.5ZM33.55-11.6L33.55-11.6Q35.3-13.4 36.85-15.63 38.4-17.85 39.72-20.15 41.05-22.45 42.05-24.63 43.05-26.8 43.6-28.53 44.15-30.25 44.2-31.25L44.2-31.25Q44.2-31.45 44.15-31.53 44.1-31.6 44.1-31.6L44.1-31.6Q43.7-31.6 42.77-30.43 41.85-29.25 40.62-27.25 39.4-25.25 38.1-22.65 36.8-20.05 35.6-17.2 34.4-14.35 33.55-11.6ZM44.35 1.45L44.35 1.45Q42.25 1.45 41.2 0.18 40.15-1.1 40.15-2.95L40.15-2.95Q40.15-4.1 40.55-5.85 40.95-7.6 41.67-9.53 42.4-11.45 43.35-13.15 44.3-14.85 45.37-15.93 46.45-17 47.5-17L47.5-17Q48.1-17 48.5-16.65 48.9-16.3 48.9-15.65L48.9-15.65Q48.9-15 48.12-13.68 47.35-12.35 46.3-10.65 45.25-8.95 44.47-7.1 43.7-5.25 43.7-3.55L43.7-3.55Q43.7-1.9 44.3-1.35 44.9-0.8 46.05-0.8L46.05-0.8Q47.75-0.8 49.72-2.5 51.7-4.2 53.85-8.45L53.85-8.45 54.5-7.75Q52.85-3.35 50.12-0.95 47.4 1.45 44.35 1.45ZM50.3-21.25L50.3-21.25Q49.4-21.25 48.67-21.68 47.95-22.1 47.95-23.05L47.95-23.05Q47.95-24.25 49.22-25.08 50.5-25.9 51.85-25.9L51.85-25.9Q52.7-25.9 53.25-25.5 53.8-25.1 53.8-24.15L53.8-24.15Q53.8-23.1 52.7-22.18 51.6-21.25 50.3-21.25ZM58.19 2.8L58.19 2.8Q55.64 2.8 53.99 1.18 52.34-0.45 52.34-3.75L52.34-3.75Q52.34-6.2 53.32-8.55 54.29-10.9 55.89-12.8 57.49-14.7 59.44-15.8 61.39-16.9 63.39-16.9L63.39-16.9Q65.49-16.9 66.37-15.8 67.24-14.7 67.24-13.35L67.24-13.35Q67.24-11.9 66.57-10.65 65.89-9.4 64.74-9.4L64.74-9.4Q63.79-9.4 63.19-10.3L63.19-10.3Q63.79-10.65 64.34-11.7 64.89-12.75 64.89-14.1L64.89-14.1Q64.89-14.6 64.69-14.85 64.49-15.1 63.89-15.1L63.89-15.1Q62.59-15.1 61.22-13.95 59.84-12.8 58.64-10.98 57.44-9.15 56.69-7.15 55.94-5.15 55.94-3.4L55.94-3.4Q55.94-1.95 56.69-0.75 57.44 0.45 59.54 0.45L59.54 0.45Q61.49 0.45 63.52-0.65 65.54-1.75 67.34-3.75 69.14-5.75 70.19-8.5L70.19-8.5 71.09-7.7Q69.89-4.7 67.82-2.33 65.74 0.05 63.22 1.43 60.69 2.8 58.19 2.8ZM72.99 1.45L72.99 1.45Q70.89 1.45 69.84 0.18 68.79-1.1 68.79-2.95L68.79-2.95Q68.79-4.1 69.19-5.85 69.59-7.6 70.32-9.53 71.04-11.45 71.99-13.15 72.94-14.85 74.02-15.93 75.09-17 76.14-17L76.14-17Q76.74-17 77.14-16.65 77.54-16.3 77.54-15.65L77.54-15.65Q77.54-15 76.77-13.68 75.99-12.35 74.94-10.65 73.89-8.95 73.12-7.1 72.34-5.25 72.34-3.55L72.34-3.55Q72.34-1.9 72.94-1.35 73.54-0.8 74.69-0.8L74.69-0.8Q76.39-0.8 78.37-2.5 80.34-4.2 82.49-8.45L82.49-8.45 83.14-7.75Q81.49-3.35 78.77-0.95 76.04 1.45 72.99 1.45ZM78.94-21.25L78.94-21.25Q78.04-21.25 77.32-21.68 76.59-22.1 76.59-23.05L76.59-23.05Q76.59-24.25 77.87-25.08 79.14-25.9 80.49-25.9L80.49-25.9Q81.34-25.9 81.89-25.5 82.44-25.1 82.44-24.15L82.44-24.15Q82.44-23.1 81.34-22.18 80.24-21.25 78.94-21.25ZM83.94 2.35L83.94 2.35Q82.34 2.35 81.16 1.28 79.99 0.2 79.99-1.95L79.99-1.95Q79.99-3.75 80.79-5.8 81.59-7.85 82.99-9.85 84.39-11.85 86.19-13.5 87.99-15.15 90.01-16.15 92.04-17.15 94.04-17.15L94.04-17.15Q96.14-17.15 97.56-16.07 98.99-15 98.99-13.25L98.99-13.25Q98.99-11.9 98.14-11.35 97.29-10.8 96.04-11L96.04-11Q96.14-11.4 96.21-11.88 96.29-12.35 96.29-12.8L96.29-12.8Q96.29-13.85 95.84-14.65 95.39-15.45 94.09-15.45L94.09-15.45Q92.69-15.45 91.24-14.5 89.79-13.55 88.44-12 87.09-10.45 86.04-8.6 84.99-6.75 84.39-4.95 83.79-3.15 83.79-1.75L83.79-1.75Q83.79-0.05 85.04-0.05L85.04-0.05Q86.19-0.05 87.56-1.15 88.94-2.25 90.36-3.95 91.79-5.65 93.09-7.43 94.39-9.2 95.34-10.55L95.34-10.55Q95.54-10.8 95.69-10.8L95.69-10.8Q95.94-10.75 96.49-10.58 97.04-10.4 97.49-10.1 97.94-9.8 97.94-9.3L97.94-9.3Q97.94-8.8 97.49-8.03 97.04-7.25 96.49-6.3 95.94-5.35 95.49-4.4 95.04-3.45 95.04-2.55L95.04-2.55Q95.04-1.9 95.41-1.28 95.79-0.65 96.64-0.65L96.64-0.65Q97.89-0.65 100.06-2.48 102.24-4.3 104.49-8.45L104.49-8.45 105.29-7.65Q104.14-4.95 102.46-2.9 100.79-0.85 98.94 0.33 97.09 1.5 95.24 1.5L95.24 1.5Q93.24 1.5 92.29 0.28 91.34-0.95 91.24-2.4L91.24-2.4Q91.24-2.55 91.26-2.73 91.29-2.9 91.29-3.05L91.29-3.05Q89.24-0.5 87.54 0.93 85.84 2.35 83.94 2.35ZM119.63 4.35L119.63 4.35Q119.93 2.55 120.33 0.73 120.73-1.1 121.31-3.38 121.88-5.65 122.78-8.58 123.68-11.5 124.93-15.45L124.93-15.45Q124.18-15.4 123.33-15.3 122.48-15.2 121.68-15.1L121.68-15.1Q121.68-16.6 122.86-17.4 124.03-18.2 125.98-18.6L125.98-18.6Q126.23-19.4 126.46-20.05 126.68-20.7 126.93-21.5 127.18-22.3 127.61-23.45 128.03-24.6 128.63-26.4 129.23-28.2 130.13-30.85L130.13-30.85Q130.28-31.2 130.53-31.98 130.78-32.75 130.78-33.45L130.78-33.45Q130.78-33.85 130.66-34 130.53-34.15 130.13-34.15L130.13-34.15Q129.03-34.15 127.98-33.23 126.93-32.3 126.08-30.88 125.23-29.45 124.73-27.93 124.23-26.4 124.23-25.25L124.23-25.25Q124.23-24.8 124.31-24.33 124.38-23.85 124.63-23.15L124.63-23.15Q122.68-23.15 121.83-24.05 120.98-24.95 120.98-26.3L120.98-26.3Q120.98-28 122.01-29.7 123.03-31.4 124.63-32.83 126.23-34.25 128.03-35.13 129.83-36 131.33-36L131.33-36Q132.83-36 133.41-35.18 133.98-34.35 133.98-33.35L133.98-33.35Q133.98-32.8 133.86-32.25 133.73-31.7 133.58-31.2L133.58-31.2 129.83-19Q130.48-19.05 131.13-19.05 131.78-19.05 132.48-19.05L132.48-19.05Q134.88-19.05 137.03-18.95 139.18-18.85 141.13-18.65L141.13-18.65Q142.28-22.5 143.21-25.33 144.13-28.15 144.86-30.13 145.58-32.1 146.08-33.3L146.08-33.3Q146.28-33.7 146.66-34.35 147.03-35 147.71-35.52 148.38-36.05 149.38-36.05L149.38-36.05Q148.73-34.25 147.81-31.38 146.88-28.5 145.96-25.13 145.03-21.75 144.13-18.4L144.13-18.4Q144.93-18.4 146.11-18.32 147.28-18.25 148.28-18.25L148.28-18.25Q146.88-16.8 145.73-16.48 144.58-16.15 143.58-16.15L143.58-16.15Q143.08-14 142.66-12.03 142.23-10.05 141.93-8.35L141.93-8.35Q141.23-4.8 140.91-2.23 140.58 0.35 140.58 2L140.58 2Q140.58 2.7 140.66 3.28 140.73 3.85 140.78 4.35L140.78 4.35Q138.43 4.1 137.58 3.15 136.73 2.2 136.73-0.05L136.73-0.05Q136.73-1.25 136.93-2.85 137.13-4.45 137.63-6.45L137.63-6.45Q138.03-8.2 138.73-10.63 139.43-13.05 140.38-16.1L140.38-16.1Q137.33-16.1 135.33-16.05 133.33-16 131.83-15.95 130.33-15.9 128.83-15.75L128.83-15.75Q128.48-14.65 128.06-13.28 127.63-11.9 127.03-10 126.43-8.1 125.61-5.43 124.78-2.75 123.58 1L123.58 1Q123.08 2.8 121.81 3.58 120.53 4.35 119.63 4.35ZM150.23 2.35L150.23 2.35Q148.63 2.35 147.46 1.28 146.28 0.2 146.28-1.95L146.28-1.95Q146.28-3.75 147.08-5.8 147.88-7.85 149.28-9.85 150.68-11.85 152.48-13.5 154.28-15.15 156.31-16.15 158.33-17.15 160.33-17.15L160.33-17.15Q162.43-17.15 163.86-16.07 165.28-15 165.28-13.25L165.28-13.25Q165.28-11.9 164.43-11.35 163.58-10.8 162.33-11L162.33-11Q162.43-11.4 162.51-11.88 162.58-12.35 162.58-12.8L162.58-12.8Q162.58-13.85 162.13-14.65 161.68-15.45 160.38-15.45L160.38-15.45Q158.98-15.45 157.53-14.5 156.08-13.55 154.73-12 153.38-10.45 152.33-8.6 151.28-6.75 150.68-4.95 150.08-3.15 150.08-1.75L150.08-1.75Q150.08-0.05 151.33-0.05L151.33-0.05Q152.48-0.05 153.86-1.15 155.23-2.25 156.66-3.95 158.08-5.65 159.38-7.43 160.68-9.2 161.63-10.55L161.63-10.55Q161.83-10.8 161.98-10.8L161.98-10.8Q162.23-10.75 162.78-10.58 163.33-10.4 163.78-10.1 164.23-9.8 164.23-9.3L164.23-9.3Q164.23-8.8 163.78-8.03 163.33-7.25 162.78-6.3 162.23-5.35 161.78-4.4 161.33-3.45 161.33-2.55L161.33-2.55Q161.33-1.9 161.71-1.28 162.08-0.65 162.93-0.65L162.93-0.65Q164.18-0.65 166.36-2.48 168.53-4.3 170.78-8.45L170.78-8.45 171.58-7.65Q170.43-4.95 168.76-2.9 167.08-0.85 165.23 0.33 163.38 1.5 161.53 1.5L161.53 1.5Q159.53 1.5 158.58 0.28 157.63-0.95 157.53-2.4L157.53-2.4Q157.53-2.55 157.56-2.73 157.58-2.9 157.58-3.05L157.58-3.05Q155.53-0.5 153.83 0.93 152.13 2.35 150.23 2.35ZM178.68 1.3L178.68 1.3Q176.88 1.3 175.78 0.35 174.68-0.6 174.68-2.2L174.68-2.2Q174.68-3.6 175.38-5.23 176.08-6.85 176.8-8.43 177.53-10 177.53-11.25L177.53-11.25Q177.53-12.55 176.7-13.33 175.88-14.1 174.93-14.65L174.93-14.65Q173.78-11.8 172.45-9.2 171.13-6.6 170.28-5.2L170.28-5.2 169.63-6.45Q170.33-7.75 171.48-10.18 172.63-12.6 173.68-15.65L173.68-15.65Q173.18-16.15 173.18-16.95L173.18-16.95Q173.18-18.3 174-19.4 174.83-20.5 175.48-20.5L175.48-20.5Q176.03-20.5 176.25-19.88 176.48-19.25 176.48-19L176.48-19Q176.48-18.75 176.23-18.07 175.98-17.4 175.93-17.15L175.93-17.15Q175.93-16.55 176.75-16.03 177.58-15.5 178.6-14.78 179.63-14.05 180.43-13.03 181.23-12 181.23-10.4L181.23-10.4Q181.23-8.9 180.58-7.4 179.93-5.9 179.28-4.55 178.63-3.2 178.63-2.25L178.63-2.25Q178.63-1.45 179.03-1.2 179.43-0.95 179.98-0.95L179.98-0.95Q181.18-0.95 182.48-1.7 183.78-2.45 185-3.6 186.23-4.75 187.18-6.03 188.13-7.3 188.63-8.35L188.63-8.35 189.63-7.6Q188.68-5.45 186.93-3.4 185.18-1.35 183.03-0.03 180.88 1.3 178.68 1.3ZM196.58 1.3L196.58 1.3Q194.78 1.3 193.68 0.35 192.58-0.6 192.58-2.2L192.58-2.2Q192.58-3.6 193.28-5.23 193.98-6.85 194.7-8.43 195.43-10 195.43-11.25L195.43-11.25Q195.43-12.55 194.6-13.33 193.78-14.1 192.83-14.65L192.83-14.65Q191.68-11.8 190.35-9.2 189.03-6.6 188.18-5.2L188.18-5.2 187.53-6.45Q188.23-7.75 189.38-10.18 190.53-12.6 191.58-15.65L191.58-15.65Q191.08-16.15 191.08-16.95L191.08-16.95Q191.08-18.3 191.9-19.4 192.73-20.5 193.38-20.5L193.38-20.5Q193.93-20.5 194.15-19.88 194.38-19.25 194.38-19L194.38-19Q194.38-18.75 194.13-18.07 193.88-17.4 193.83-17.15L193.83-17.15Q193.83-16.55 194.65-16.03 195.48-15.5 196.5-14.78 197.53-14.05 198.33-13.03 199.13-12 199.13-10.4L199.13-10.4Q199.13-8.9 198.48-7.4 197.83-5.9 197.18-4.55 196.53-3.2 196.53-2.25L196.53-2.25Q196.53-1.45 196.93-1.2 197.33-0.95 197.88-0.95L197.88-0.95Q199.08-0.95 200.38-1.7 201.68-2.45 202.9-3.6 204.13-4.75 205.08-6.03 206.03-7.3 206.53-8.35L206.53-8.35 207.53-7.6Q206.58-5.45 204.83-3.4 203.08-1.35 200.93-0.03 198.78 1.3 196.58 1.3ZM209.27 1.45L209.27 1.45Q207.17 1.45 206.12 0.18 205.07-1.1 205.07-2.95L205.07-2.95Q205.07-4.1 205.47-5.85 205.87-7.6 206.6-9.53 207.32-11.45 208.27-13.15 209.22-14.85 210.3-15.93 211.37-17 212.42-17L212.42-17Q213.02-17 213.42-16.65 213.82-16.3 213.82-15.65L213.82-15.65Q213.82-15 213.05-13.68 212.27-12.35 211.22-10.65 210.17-8.95 209.4-7.1 208.62-5.25 208.62-3.55L208.62-3.55Q208.62-1.9 209.22-1.35 209.82-0.8 210.97-0.8L210.97-0.8Q212.67-0.8 214.65-2.5 216.62-4.2 218.77-8.45L218.77-8.45 219.42-7.75Q217.77-3.35 215.05-0.95 212.32 1.45 209.27 1.45ZM215.22-21.25L215.22-21.25Q214.32-21.25 213.6-21.68 212.87-22.1 212.87-23.05L212.87-23.05Q212.87-24.25 214.15-25.08 215.42-25.9 216.77-25.9L216.77-25.9Q217.62-25.9 218.17-25.5 218.72-25.1 218.72-24.15L218.72-24.15Q218.72-23.1 217.62-22.18 216.52-21.25 215.22-21.25ZM223.22 2.55L223.22 2.55Q220.77 2.55 219.3 1.53 217.82 0.5 217.2-1.05 216.57-2.6 216.57-4.2L216.57-4.2Q216.57-5.65 216.97-6.45 217.37-7.25 217.97-7.65 218.57-8.05 219.1-8.25 219.62-8.45 219.82-8.65L219.82-8.65Q221.17-10.1 222.47-11.85 223.77-13.6 224.72-15.65L224.72-15.65 224.72-16.2Q224.72-18.15 225.37-18.95 226.02-19.75 226.87-19.75L226.87-19.75Q227.42-19.75 227.67-19.48 227.92-19.2 227.92-18.85L227.92-18.85Q227.92-18.6 227.8-18.15 227.67-17.7 227.67-16.95L227.67-16.95Q227.67-15.4 228.37-13.48 229.07-11.55 229.77-9.4 230.47-7.25 230.47-5L230.47-5Q230.47-4.35 230.42-3.83 230.37-3.3 230.22-2.8L230.22-2.8Q231.87-3.15 233.37-4.48 234.87-5.8 236.27-8.45L236.27-8.45 236.82-8Q235.87-5.15 234.05-3.53 232.22-1.9 229.87-1.55L229.87-1.55Q229.07 0.55 227.27 1.55 225.47 2.55 223.22 2.55ZM223.02 0.5L223.02 0.5Q223.87 0.5 224.77 0.03 225.67-0.45 226.22-1.6L226.22-1.6Q224.12-2.05 222.5-3.23 220.87-4.4 219.97-5.65L219.97-5.65Q219.17-5.5 219.17-4.15L219.17-4.15Q219.17-2.45 220.15-0.98 221.12 0.5 223.02 0.5ZM226.57-2.9L226.57-2.9Q226.67-3.3 226.7-3.8 226.72-4.3 226.72-4.7L226.72-4.7Q226.67-7 226.12-9.22 225.57-11.45 225.07-13.7L225.07-13.7Q224.07-12 222.85-10.23 221.62-8.45 220.57-7.35L220.57-7.35Q221.32-5.9 222.9-4.65 224.47-3.4 226.57-2.9Z" opacity="1" transform="matrix(1,0,0,1,0,0)" fill="black" class="wordmark-text-0" id="SvgjsPath1397" stroke-width="7" stroke="black" stroke-linejoin="round"></path></svg></g></svg></g></svg></g></svg></g></svg></g></svg></g></svg></g></mask><g transform="matrix(1,0,0,1,39.55199999999999,92.88503297153389)"><svg viewBox="0 0 316.416 61.42993405693222" height="61.42993405693222" width="316.416"><g><svg viewBox="0 0 316.416 61.42993405693222" height="61.42993405693222" width="316.416"><g><svg viewBox="0 0 316.416 61.42993405693222" height="61.42993405693222" width="316.416"><g><svg viewBox="0 0 316.416 61.42993405693222" height="61.42993405693222" width="316.416"><g id="textblocktransform"><svg viewBox="0 0 316.416 61.42993405693222" height="61.42993405693222" width="316.416" id="textblock"><g><svg viewBox="0 0 316.416 61.42993405693222" height="61.42993405693222" width="316.416"><g transform="matrix(1,0,0,1,0,0)"><svg width="316.416" viewBox="-4.300000011920929 -40.04999923706055 245.12001037597656 48.39999771118164" height="61.42993405693222" data-palette-color="#1c4b82"><path d="M1.8 4.35L1.8 4.35Q0.45 3.6 0.08 2.8-0.3 2-0.3 1.4L-0.3 1.4Q-0.3 0.05 0.7-2.27 1.7-4.6 3.38-7.58 5.05-10.55 7.15-13.8L7.15-13.8Q5.5-13.9 4.13-13.95 2.75-14 1-14L1-14-0.15-14Q0.5-15.7 1.98-16.38 3.45-17.05 5.45-17.05L5.45-17.05Q6.3-17.05 7.23-16.95 8.15-16.85 9.15-16.75L9.15-16.75Q11.65-20.4 14.15-23.75 16.65-27.1 18.88-29.75 21.1-32.4 22.75-34L22.75-34Q24.85-36.05 25.9-36.05L25.9-36.05Q26.55-36.05 27.35-35.55 28.15-35.05 29.05-34.25L29.05-34.25Q28.55-33.85 27.78-32.18 27-30.5 26.13-27.95 25.25-25.4 24.38-22.35 23.5-19.3 22.8-16.18 22.1-13.05 21.68-10.2 21.25-7.35 21.25-5.15L21.25-5.15Q21.25-3.2 21.65-2.2 22.05-1.2 23.05-1.2L23.05-1.2Q24.25-1.2 25.93-2.98 27.6-4.75 29.65-8.65L29.65-8.65 30.4-7.85Q28.9-3.75 26.48-1.15 24.05 1.45 21.35 1.45L21.35 1.45Q19.05 1.45 18.07-0.53 17.1-2.5 17.1-5.95L17.1-5.95Q17.1-7.25 17.28-8.85 17.45-10.45 17.8-12.55L17.8-12.55Q15.6-12.9 13.88-13.1 12.15-13.3 10.6-13.5L10.6-13.5Q8.2-9.25 5.95-4.67 3.7-0.1 1.8 4.35ZM18.25-14.75L18.25-14.75Q18.95-17.85 19.88-20.98 20.8-24.1 21.83-26.98 22.85-29.85 23.8-32.1L23.8-32.1Q22.3-30.95 20.38-28.65 18.45-26.35 16.35-23.15 14.25-19.95 12.1-16.2L12.1-16.2Q13.65-15.85 15.2-15.48 16.75-15.1 18.25-14.75ZM32.65 1.5L32.65 1.5Q30.35 1.5 29.42-0.05 28.5-1.6 28.5-3.75L28.5-3.75Q28.5-6.2 29.4-9.5 30.3-12.8 31.77-16.43 33.25-20.05 35.02-23.53 36.8-27 38.57-29.83 40.35-32.65 41.87-34.33 43.4-36 44.3-36L44.3-36Q44.9-36 45.32-35.35 45.75-34.7 46-33.77 46.25-32.85 46.25-32.1L46.25-32.1Q46.25-30.75 45.57-28.58 44.9-26.4 43.67-23.78 42.45-21.15 40.77-18.43 39.1-15.7 37.1-13.23 35.1-10.75 32.8-8.95L32.8-8.95Q32.6-7.7 32.42-6.45 32.25-5.2 32.25-4.15L32.25-4.15Q32.25-2.3 32.82-1.43 33.4-0.55 34.4-0.55L34.4-0.55Q35.7-0.55 37.02-1.75 38.35-2.95 39.55-4.78 40.75-6.6 41.65-8.55L41.65-8.55 42.7-7.95Q40.6-3.6 38.05-1.05 35.5 1.5 32.65 1.5ZM33.55-11.6L33.55-11.6Q35.3-13.4 36.85-15.63 38.4-17.85 39.72-20.15 41.05-22.45 42.05-24.63 43.05-26.8 43.6-28.53 44.15-30.25 44.2-31.25L44.2-31.25Q44.2-31.45 44.15-31.53 44.1-31.6 44.1-31.6L44.1-31.6Q43.7-31.6 42.77-30.43 41.85-29.25 40.62-27.25 39.4-25.25 38.1-22.65 36.8-20.05 35.6-17.2 34.4-14.35 33.55-11.6ZM44.35 1.45L44.35 1.45Q42.25 1.45 41.2 0.18 40.15-1.1 40.15-2.95L40.15-2.95Q40.15-4.1 40.55-5.85 40.95-7.6 41.67-9.53 42.4-11.45 43.35-13.15 44.3-14.85 45.37-15.93 46.45-17 47.5-17L47.5-17Q48.1-17 48.5-16.65 48.9-16.3 48.9-15.65L48.9-15.65Q48.9-15 48.12-13.68 47.35-12.35 46.3-10.65 45.25-8.95 44.47-7.1 43.7-5.25 43.7-3.55L43.7-3.55Q43.7-1.9 44.3-1.35 44.9-0.8 46.05-0.8L46.05-0.8Q47.75-0.8 49.72-2.5 51.7-4.2 53.85-8.45L53.85-8.45 54.5-7.75Q52.85-3.35 50.12-0.95 47.4 1.45 44.35 1.45ZM50.3-21.25L50.3-21.25Q49.4-21.25 48.67-21.68 47.95-22.1 47.95-23.05L47.95-23.05Q47.95-24.25 49.22-25.08 50.5-25.9 51.85-25.9L51.85-25.9Q52.7-25.9 53.25-25.5 53.8-25.1 53.8-24.15L53.8-24.15Q53.8-23.1 52.7-22.18 51.6-21.25 50.3-21.25ZM58.19 2.8L58.19 2.8Q55.64 2.8 53.99 1.18 52.34-0.45 52.34-3.75L52.34-3.75Q52.34-6.2 53.32-8.55 54.29-10.9 55.89-12.8 57.49-14.7 59.44-15.8 61.39-16.9 63.39-16.9L63.39-16.9Q65.49-16.9 66.37-15.8 67.24-14.7 67.24-13.35L67.24-13.35Q67.24-11.9 66.57-10.65 65.89-9.4 64.74-9.4L64.74-9.4Q63.79-9.4 63.19-10.3L63.19-10.3Q63.79-10.65 64.34-11.7 64.89-12.75 64.89-14.1L64.89-14.1Q64.89-14.6 64.69-14.85 64.49-15.1 63.89-15.1L63.89-15.1Q62.59-15.1 61.22-13.95 59.84-12.8 58.64-10.98 57.44-9.15 56.69-7.15 55.94-5.15 55.94-3.4L55.94-3.4Q55.94-1.95 56.69-0.75 57.44 0.45 59.54 0.45L59.54 0.45Q61.49 0.45 63.52-0.65 65.54-1.75 67.34-3.75 69.14-5.75 70.19-8.5L70.19-8.5 71.09-7.7Q69.89-4.7 67.82-2.33 65.74 0.05 63.22 1.43 60.69 2.8 58.19 2.8ZM72.99 1.45L72.99 1.45Q70.89 1.45 69.84 0.18 68.79-1.1 68.79-2.95L68.79-2.95Q68.79-4.1 69.19-5.85 69.59-7.6 70.32-9.53 71.04-11.45 71.99-13.15 72.94-14.85 74.02-15.93 75.09-17 76.14-17L76.14-17Q76.74-17 77.14-16.65 77.54-16.3 77.54-15.65L77.54-15.65Q77.54-15 76.77-13.68 75.99-12.35 74.94-10.65 73.89-8.95 73.12-7.1 72.34-5.25 72.34-3.55L72.34-3.55Q72.34-1.9 72.94-1.35 73.54-0.8 74.69-0.8L74.69-0.8Q76.39-0.8 78.37-2.5 80.34-4.2 82.49-8.45L82.49-8.45 83.14-7.75Q81.49-3.35 78.77-0.95 76.04 1.45 72.99 1.45ZM78.94-21.25L78.94-21.25Q78.04-21.25 77.32-21.68 76.59-22.1 76.59-23.05L76.59-23.05Q76.59-24.25 77.87-25.08 79.14-25.9 80.49-25.9L80.49-25.9Q81.34-25.9 81.89-25.5 82.44-25.1 82.44-24.15L82.44-24.15Q82.44-23.1 81.34-22.18 80.24-21.25 78.94-21.25ZM83.94 2.35L83.94 2.35Q82.34 2.35 81.16 1.28 79.99 0.2 79.99-1.95L79.99-1.95Q79.99-3.75 80.79-5.8 81.59-7.85 82.99-9.85 84.39-11.85 86.19-13.5 87.99-15.15 90.01-16.15 92.04-17.15 94.04-17.15L94.04-17.15Q96.14-17.15 97.56-16.07 98.99-15 98.99-13.25L98.99-13.25Q98.99-11.9 98.14-11.35 97.29-10.8 96.04-11L96.04-11Q96.14-11.4 96.21-11.88 96.29-12.35 96.29-12.8L96.29-12.8Q96.29-13.85 95.84-14.65 95.39-15.45 94.09-15.45L94.09-15.45Q92.69-15.45 91.24-14.5 89.79-13.55 88.44-12 87.09-10.45 86.04-8.6 84.99-6.75 84.39-4.95 83.79-3.15 83.79-1.75L83.79-1.75Q83.79-0.05 85.04-0.05L85.04-0.05Q86.19-0.05 87.56-1.15 88.94-2.25 90.36-3.95 91.79-5.65 93.09-7.43 94.39-9.2 95.34-10.55L95.34-10.55Q95.54-10.8 95.69-10.8L95.69-10.8Q95.94-10.75 96.49-10.58 97.04-10.4 97.49-10.1 97.94-9.8 97.94-9.3L97.94-9.3Q97.94-8.8 97.49-8.03 97.04-7.25 96.49-6.3 95.94-5.35 95.49-4.4 95.04-3.45 95.04-2.55L95.04-2.55Q95.04-1.9 95.41-1.28 95.79-0.65 96.64-0.65L96.64-0.65Q97.89-0.65 100.06-2.48 102.24-4.3 104.49-8.45L104.49-8.45 105.29-7.65Q104.14-4.95 102.46-2.9 100.79-0.85 98.94 0.33 97.09 1.5 95.24 1.5L95.24 1.5Q93.24 1.5 92.29 0.28 91.34-0.95 91.24-2.4L91.24-2.4Q91.24-2.55 91.26-2.73 91.29-2.9 91.29-3.05L91.29-3.05Q89.24-0.5 87.54 0.93 85.84 2.35 83.94 2.35ZM119.63 4.35L119.63 4.35Q119.93 2.55 120.33 0.73 120.73-1.1 121.31-3.38 121.88-5.65 122.78-8.58 123.68-11.5 124.93-15.45L124.93-15.45Q124.18-15.4 123.33-15.3 122.48-15.2 121.68-15.1L121.68-15.1Q121.68-16.6 122.86-17.4 124.03-18.2 125.98-18.6L125.98-18.6Q126.23-19.4 126.46-20.05 126.68-20.7 126.93-21.5 127.18-22.3 127.61-23.45 128.03-24.6 128.63-26.4 129.23-28.2 130.13-30.85L130.13-30.85Q130.28-31.2 130.53-31.98 130.78-32.75 130.78-33.45L130.78-33.45Q130.78-33.85 130.66-34 130.53-34.15 130.13-34.15L130.13-34.15Q129.03-34.15 127.98-33.23 126.93-32.3 126.08-30.88 125.23-29.45 124.73-27.93 124.23-26.4 124.23-25.25L124.23-25.25Q124.23-24.8 124.31-24.33 124.38-23.85 124.63-23.15L124.63-23.15Q122.68-23.15 121.83-24.05 120.98-24.95 120.98-26.3L120.98-26.3Q120.98-28 122.01-29.7 123.03-31.4 124.63-32.83 126.23-34.25 128.03-35.13 129.83-36 131.33-36L131.33-36Q132.83-36 133.41-35.18 133.98-34.35 133.98-33.35L133.98-33.35Q133.98-32.8 133.86-32.25 133.73-31.7 133.58-31.2L133.58-31.2 129.83-19Q130.48-19.05 131.13-19.05 131.78-19.05 132.48-19.05L132.48-19.05Q134.88-19.05 137.03-18.95 139.18-18.85 141.13-18.65L141.13-18.65Q142.28-22.5 143.21-25.33 144.13-28.15 144.86-30.13 145.58-32.1 146.08-33.3L146.08-33.3Q146.28-33.7 146.66-34.35 147.03-35 147.71-35.52 148.38-36.05 149.38-36.05L149.38-36.05Q148.73-34.25 147.81-31.38 146.88-28.5 145.96-25.13 145.03-21.75 144.13-18.4L144.13-18.4Q144.93-18.4 146.11-18.32 147.28-18.25 148.28-18.25L148.28-18.25Q146.88-16.8 145.73-16.48 144.58-16.15 143.58-16.15L143.58-16.15Q143.08-14 142.66-12.03 142.23-10.05 141.93-8.35L141.93-8.35Q141.23-4.8 140.91-2.23 140.58 0.35 140.58 2L140.58 2Q140.58 2.7 140.66 3.28 140.73 3.85 140.78 4.35L140.78 4.35Q138.43 4.1 137.58 3.15 136.73 2.2 136.73-0.05L136.73-0.05Q136.73-1.25 136.93-2.85 137.13-4.45 137.63-6.45L137.63-6.45Q138.03-8.2 138.73-10.63 139.43-13.05 140.38-16.1L140.38-16.1Q137.33-16.1 135.33-16.05 133.33-16 131.83-15.95 130.33-15.9 128.83-15.75L128.83-15.75Q128.48-14.65 128.06-13.28 127.63-11.9 127.03-10 126.43-8.1 125.61-5.43 124.78-2.75 123.58 1L123.58 1Q123.08 2.8 121.81 3.58 120.53 4.35 119.63 4.35ZM150.23 2.35L150.23 2.35Q148.63 2.35 147.46 1.28 146.28 0.2 146.28-1.95L146.28-1.95Q146.28-3.75 147.08-5.8 147.88-7.85 149.28-9.85 150.68-11.85 152.48-13.5 154.28-15.15 156.31-16.15 158.33-17.15 160.33-17.15L160.33-17.15Q162.43-17.15 163.86-16.07 165.28-15 165.28-13.25L165.28-13.25Q165.28-11.9 164.43-11.35 163.58-10.8 162.33-11L162.33-11Q162.43-11.4 162.51-11.88 162.58-12.35 162.58-12.8L162.58-12.8Q162.58-13.85 162.13-14.65 161.68-15.45 160.38-15.45L160.38-15.45Q158.98-15.45 157.53-14.5 156.08-13.55 154.73-12 153.38-10.45 152.33-8.6 151.28-6.75 150.68-4.95 150.08-3.15 150.08-1.75L150.08-1.75Q150.08-0.05 151.33-0.05L151.33-0.05Q152.48-0.05 153.86-1.15 155.23-2.25 156.66-3.95 158.08-5.65 159.38-7.43 160.68-9.2 161.63-10.55L161.63-10.55Q161.83-10.8 161.98-10.8L161.98-10.8Q162.23-10.75 162.78-10.58 163.33-10.4 163.78-10.1 164.23-9.8 164.23-9.3L164.23-9.3Q164.23-8.8 163.78-8.03 163.33-7.25 162.78-6.3 162.23-5.35 161.78-4.4 161.33-3.45 161.33-2.55L161.33-2.55Q161.33-1.9 161.71-1.28 162.08-0.65 162.93-0.65L162.93-0.65Q164.18-0.65 166.36-2.48 168.53-4.3 170.78-8.45L170.78-8.45 171.58-7.65Q170.43-4.95 168.76-2.9 167.08-0.85 165.23 0.33 163.38 1.5 161.53 1.5L161.53 1.5Q159.53 1.5 158.58 0.28 157.63-0.95 157.53-2.4L157.53-2.4Q157.53-2.55 157.56-2.73 157.58-2.9 157.58-3.05L157.58-3.05Q155.53-0.5 153.83 0.93 152.13 2.35 150.23 2.35ZM178.68 1.3L178.68 1.3Q176.88 1.3 175.78 0.35 174.68-0.6 174.68-2.2L174.68-2.2Q174.68-3.6 175.38-5.23 176.08-6.85 176.8-8.43 177.53-10 177.53-11.25L177.53-11.25Q177.53-12.55 176.7-13.33 175.88-14.1 174.93-14.65L174.93-14.65Q173.78-11.8 172.45-9.2 171.13-6.6 170.28-5.2L170.28-5.2 169.63-6.45Q170.33-7.75 171.48-10.18 172.63-12.6 173.68-15.65L173.68-15.65Q173.18-16.15 173.18-16.95L173.18-16.95Q173.18-18.3 174-19.4 174.83-20.5 175.48-20.5L175.48-20.5Q176.03-20.5 176.25-19.88 176.48-19.25 176.48-19L176.48-19Q176.48-18.75 176.23-18.07 175.98-17.4 175.93-17.15L175.93-17.15Q175.93-16.55 176.75-16.03 177.58-15.5 178.6-14.78 179.63-14.05 180.43-13.03 181.23-12 181.23-10.4L181.23-10.4Q181.23-8.9 180.58-7.4 179.93-5.9 179.28-4.55 178.63-3.2 178.63-2.25L178.63-2.25Q178.63-1.45 179.03-1.2 179.43-0.95 179.98-0.95L179.98-0.95Q181.18-0.95 182.48-1.7 183.78-2.45 185-3.6 186.23-4.75 187.18-6.03 188.13-7.3 188.63-8.35L188.63-8.35 189.63-7.6Q188.68-5.45 186.93-3.4 185.18-1.35 183.03-0.03 180.88 1.3 178.68 1.3ZM196.58 1.3L196.58 1.3Q194.78 1.3 193.68 0.35 192.58-0.6 192.58-2.2L192.58-2.2Q192.58-3.6 193.28-5.23 193.98-6.85 194.7-8.43 195.43-10 195.43-11.25L195.43-11.25Q195.43-12.55 194.6-13.33 193.78-14.1 192.83-14.65L192.83-14.65Q191.68-11.8 190.35-9.2 189.03-6.6 188.18-5.2L188.18-5.2 187.53-6.45Q188.23-7.75 189.38-10.18 190.53-12.6 191.58-15.65L191.58-15.65Q191.08-16.15 191.08-16.95L191.08-16.95Q191.08-18.3 191.9-19.4 192.73-20.5 193.38-20.5L193.38-20.5Q193.93-20.5 194.15-19.88 194.38-19.25 194.38-19L194.38-19Q194.38-18.75 194.13-18.07 193.88-17.4 193.83-17.15L193.83-17.15Q193.83-16.55 194.65-16.03 195.48-15.5 196.5-14.78 197.53-14.05 198.33-13.03 199.13-12 199.13-10.4L199.13-10.4Q199.13-8.9 198.48-7.4 197.83-5.9 197.18-4.55 196.53-3.2 196.53-2.25L196.53-2.25Q196.53-1.45 196.93-1.2 197.33-0.95 197.88-0.95L197.88-0.95Q199.08-0.95 200.38-1.7 201.68-2.45 202.9-3.6 204.13-4.75 205.08-6.03 206.03-7.3 206.53-8.35L206.53-8.35 207.53-7.6Q206.58-5.45 204.83-3.4 203.08-1.35 200.93-0.03 198.78 1.3 196.58 1.3ZM209.27 1.45L209.27 1.45Q207.17 1.45 206.12 0.18 205.07-1.1 205.07-2.95L205.07-2.95Q205.07-4.1 205.47-5.85 205.87-7.6 206.6-9.53 207.32-11.45 208.27-13.15 209.22-14.85 210.3-15.93 211.37-17 212.42-17L212.42-17Q213.02-17 213.42-16.65 213.82-16.3 213.82-15.65L213.82-15.65Q213.82-15 213.05-13.68 212.27-12.35 211.22-10.65 210.17-8.95 209.4-7.1 208.62-5.25 208.62-3.55L208.62-3.55Q208.62-1.9 209.22-1.35 209.82-0.8 210.97-0.8L210.97-0.8Q212.67-0.8 214.65-2.5 216.62-4.2 218.77-8.45L218.77-8.45 219.42-7.75Q217.77-3.35 215.05-0.95 212.32 1.45 209.27 1.45ZM215.22-21.25L215.22-21.25Q214.32-21.25 213.6-21.68 212.87-22.1 212.87-23.05L212.87-23.05Q212.87-24.25 214.15-25.08 215.42-25.9 216.77-25.9L216.77-25.9Q217.62-25.9 218.17-25.5 218.72-25.1 218.72-24.15L218.72-24.15Q218.72-23.1 217.62-22.18 216.52-21.25 215.22-21.25ZM223.22 2.55L223.22 2.55Q220.77 2.55 219.3 1.53 217.82 0.5 217.2-1.05 216.57-2.6 216.57-4.2L216.57-4.2Q216.57-5.65 216.97-6.45 217.37-7.25 217.97-7.65 218.57-8.05 219.1-8.25 219.62-8.45 219.82-8.65L219.82-8.65Q221.17-10.1 222.47-11.85 223.77-13.6 224.72-15.65L224.72-15.65 224.72-16.2Q224.72-18.15 225.37-18.95 226.02-19.75 226.87-19.75L226.87-19.75Q227.42-19.75 227.67-19.48 227.92-19.2 227.92-18.85L227.92-18.85Q227.92-18.6 227.8-18.15 227.67-17.7 227.67-16.95L227.67-16.95Q227.67-15.4 228.37-13.48 229.07-11.55 229.77-9.4 230.47-7.25 230.47-5L230.47-5Q230.47-4.35 230.42-3.83 230.37-3.3 230.22-2.8L230.22-2.8Q231.87-3.15 233.37-4.48 234.87-5.8 236.27-8.45L236.27-8.45 236.82-8Q235.87-5.15 234.05-3.53 232.22-1.9 229.87-1.55L229.87-1.55Q229.07 0.55 227.27 1.55 225.47 2.55 223.22 2.55ZM223.02 0.5L223.02 0.5Q223.87 0.5 224.77 0.03 225.67-0.45 226.22-1.6L226.22-1.6Q224.12-2.05 222.5-3.23 220.87-4.4 219.97-5.65L219.97-5.65Q219.17-5.5 219.17-4.15L219.17-4.15Q219.17-2.45 220.15-0.98 221.12 0.5 223.02 0.5ZM226.57-2.9L226.57-2.9Q226.67-3.3 226.7-3.8 226.72-4.3 226.72-4.7L226.72-4.7Q226.67-7 226.12-9.22 225.57-11.45 225.07-13.7L225.07-13.7Q224.07-12 222.85-10.23 221.62-8.45 220.57-7.35L220.57-7.35Q221.32-5.9 222.9-4.65 224.47-3.4 226.57-2.9Z" opacity="1" transform="matrix(1,0,0,1,0,0)" fill="#1c4b82" class="wordmark-text-0" data-fill-palette-color="primary" id="text-0"></path></svg></g></svg></g></svg></g></svg></g></svg></g></svg></g></svg></g><g mask="url(#52ed5fc5-a3a4-4f08-9dd2-1501619b6b2b)"><g transform="matrix(3.0026210247019693, 0, 0, 3.0026210247019693, 50.77400140139767, 1)"><svg xmlns="http://www.w3.org/2000/svg" xmlns:xlink="http://www.w3.org/1999/xlink" version="1.1" x="0" y="0" viewBox="1.0469999313354492 9.170000076293945 97.9051284790039 81.6619873046875" enable-background="new 0 0 100 100" xml:space="preserve" height="81.6619873046875" width="97.9051284790039" class="icon-none" data-fill-palette-color="accent" id="none"><g fill="#1c4b82" data-fill-palette-color="accent"><path d="M1.047 66.597v5.466c0 1.574 1.276 2.85 2.849 2.85h88.896c1.573 0 2.848-1.275 2.848-2.85v-5.466H1.047z" fill="#1c4b82" data-fill-palette-color="accent"></path><path d="M92.793 9.17H3.896c-1.573 0-2.849 1.276-2.849 2.849v53.757h94.593V12.019C95.641 10.446 94.366 9.17 92.793 9.17zM91.707 62.311H4.825V12.808h86.882V62.311z" fill="#1c4b82" data-fill-palette-color="accent"></path><path d="M61.269 83.279c-1.734-1.275-1.917-3.19-1.917-3.19l-0.65-4.154H37.988l-0.652 4.154c0 0-0.181 1.915-1.914 3.19-1.732 1.276-3.099 2.37-1.732 2.553 1.317 0.177 13.74 0.015 14.656 0.001 0.917 0.014 13.338 0.176 14.655-0.001C64.367 85.649 63 84.556 61.269 83.279z" fill="#1c4b82" data-fill-palette-color="accent"></path><polygon points="74.279,90.061 21.101,90.061 23.95,86.505 71.43,86.505  " fill="#1c4b82" data-fill-palette-color="accent"></polygon><rect x="21.101" y="90.061" width="53.179" height="0.77" fill="#1c4b82" data-fill-palette-color="accent"></rect><path d="M90.211 85.702c0 0-3.898-0.043-6.76 0.795 0.678-0.063 1.426-0.007 2.211 0.265 0.777 0.271 1.533 0.71 2.331 1.173 1.443 0.842 3.125 1.816 5.617 2.197 3.719-0.049 5.309-0.408 5.341-1.077C98.997 88.142 97.664 85.841 90.211 85.702zM85.545 87.099c-1.787-0.62-3.411-0.021-4.321 0.469-0.177 0.149-0.329 0.309-0.446 0.482 0 0 0.552 1.769 7.868 2.011 1.217 0.04 2.31 0.065 3.292 0.073-1.698-0.484-2.984-1.228-4.125-1.89C87.031 87.789 86.292 87.357 85.545 87.099z" fill="#1c4b82" data-fill-palette-color="accent"></path><path d="M94.127 90.434c-0.001 0-0.001 0.001-0.002 0.001-0.086 0.002-0.201 0.004-0.332 0.006-0.061 0-0.12 0.002-0.183 0.003-0.002-0.001-0.005-0.001-0.008-0.001-0.515 0.003-1.201 0.001-1.679 0 0.006 0.001 0.01 0.001 0.014 0.003-0.157-0.002-0.321-0.003-0.483-0.005-0.055-0.001-0.086-0.002-0.086-0.002h-0.002c-0.831-0.012-1.732-0.032-2.721-0.065-2.743-0.092-4.537-0.398-5.705-0.744v0.432l8.834 0.77c0 0 3.772-0.105 4.923-0.385v-0.163C96.012 90.36 95.161 90.41 94.127 90.434z" fill="#1c4b82" data-fill-palette-color="accent"></path></g></svg></g></g></svg></g><defs></defs></svg><rect width="395.52" height="247.2" fill="none" stroke="none" visibility="hidden"></rect></g></svg></g></svg>